<svg xmlns="http://www.w3.org/2000/svg" viewBox="0 0 24 24" fill="#000080">
  <path d="M12 0C5.373 0 0 5.373 0 12c0 5.304 3.438 9.8 8.205 11.387.6.111.82-.26.82-.577v-2.234c-3.338.726-4.033-1.61-4.033-1.61-.546-1.387-1.333-1.756-1.333-1.756-1.091-.745.083-.73.083-.73 1.204.085 1.837 1.236 1.837 1.236 1.07 1.833 2.809 1.303 3.492.997.108-.774.418-1.303.762-1.603-2.665-.302-5.466-1.333-5.466-5.931 0-1.31.469-2.381 1.236-3.221-.124-.303-.535-1.518.117-3.165 0 0 1.008-.322 3.3 1.23A11.515 11.515 0 0112 6.844c1.021.004 2.047.138 3.007.405 2.291-1.552 3.297-1.23 3.297-1.23.654 1.647.243 2.862.12 3.165.77.84 1.236 1.911 1.236 3.221 0 4.61-2.807 5.625-5.481 5.922.43.37.815 1.1.815 2.22v3.293c0 .32.22.694.824.576C20.565 21.798 24 17.304 24 12 24 5.373 18.627 0 12 0z"/>
</svg>
